<?xml version="1.0" encoding="UTF-8" standalone="no"?>
<!DOCTYPE svg PUBLIC "-//W3C//DTD SVG 1.1//EN"
 "http://www.w3.org/Graphics/SVG/1.1/DTD/svg11.dtd">
<!-- Generated by graphviz version 2.38.0 (20140413.2041)
 -->
<!-- Title: models_diagram Pages: 1 -->
<svg width="522pt" height="439pt"
 viewBox="0.00 0.00 521.72 439.00" xmlns="http://www.w3.org/2000/svg" xmlns:xlink="http://www.w3.org/1999/xlink">
<g id="graph0" class="graph" transform="scale(1 1) rotate(0) translate(4 435)">
<title>models_diagram</title>
<polygon fill="none" stroke="none" points="-4,4 -4,-435 517.725,-435 517.725,4 -4,4"/>
<!-- _diagram_info -->
<g id="node1" class="node"><title>_diagram_info</title>
<text text-anchor="start" x="48.1746" y="-395.6" font-family="Times,serif" font-size="13.00">Models diagram</text>
<text text-anchor="start" x="48.1746" y="-382.6" font-family="Times,serif" font-size="13.00">Date: Jul 18 2016 &#45; 21:02</text>
<text text-anchor="start" x="48.1746" y="-369.6" font-family="Times,serif" font-size="13.00">Migration version: 20160719010001</text>
<text text-anchor="start" x="48.1746" y="-356.6" font-family="Times,serif" font-size="13.00">Generated by RailRoady 1.5.1</text>
<text text-anchor="start" x="48.1746" y="-343.6" font-family="Times,serif" font-size="13.00">http://railroady.prestonlee.com</text>
</g>
<!-- Category -->
<g id="node2" class="node"><title>Category</title>
<path fill="none" stroke="black" d="M12,-179.5C12,-179.5 235.725,-179.5 235.725,-179.5 241.725,-179.5 247.725,-185.5 247.725,-191.5 247.725,-191.5 247.725,-253.5 247.725,-253.5 247.725,-259.5 241.725,-265.5 235.725,-265.5 235.725,-265.5 12,-265.5 12,-265.5 6,-265.5 0,-259.5 0,-253.5 0,-253.5 0,-191.5 0,-191.5 0,-185.5 6,-179.5 12,-179.5"/>
<text text-anchor="middle" x="123.862" y="-250.3" font-family="Times,serif" font-size="14.00">Category</text>
<polyline fill="none" stroke="black" points="0,-243.5 247.725,-243.5 "/>
<text text-anchor="start" x="8" y="-228.3" font-family="Times,serif" font-size="14.00">id :integer</text>
<text text-anchor="start" x="8" y="-214.3" font-family="Times,serif" font-size="14.00">name :character varying</text>
<text text-anchor="start" x="8" y="-200.3" font-family="Times,serif" font-size="14.00">created_at :timestamp without time zone</text>
<text text-anchor="start" x="8" y="-186.3" font-family="Times,serif" font-size="14.00">updated_at :timestamp without time zone</text>
</g>
<!-- Inventory -->
<g id="node3" class="node"><title>Inventory</title>
<path fill="none" stroke="black" d="M145,-0.5C145,-0.5 368.725,-0.5 368.725,-0.5 374.725,-0.5 380.725,-6.5 380.725,-12.5 380.725,-12.5 380.725,-116.5 380.725,-116.5 380.725,-122.5 374.725,-128.5 368.725,-128.5 368.725,-128.5 145,-128.5 145,-128.5 139,-128.5 133,-122.5 133,-116.5 133,-116.5 133,-12.5 133,-12.5 133,-6.5 139,-0.5 145,-0.5"/>
<text text-anchor="middle" x="256.862" y="-113.3" font-family="Times,serif" font-size="14.00">Inventory</text>
<polyline fill="none" stroke="black" points="133,-106.5 380.725,-106.5 "/>
<text text-anchor="start" x="141" y="-91.3" font-family="Times,serif" font-size="14.00">description :text</text>
<text text-anchor="start" x="141" y="-77.3" font-family="Times,serif" font-size="14.00">serial :integer</text>
<text text-anchor="start" x="141" y="-63.3" font-family="Times,serif" font-size="14.00">wheel :integer</text>
<text text-anchor="start" x="141" y="-49.3" font-family="Times,serif" font-size="14.00">id :integer</text>
<text text-anchor="start" x="141" y="-35.3" font-family="Times,serif" font-size="14.00">category_id :integer</text>
<text text-anchor="start" x="141" y="-21.3" font-family="Times,serif" font-size="14.00">created_at :timestamp without time zone</text>
<text text-anchor="start" x="141" y="-7.3" font-family="Times,serif" font-size="14.00">updated_at :timestamp without time zone</text>
</g>
<!-- Category&#45;&gt;Inventory -->
<g id="edge1" class="edge"><title>Category&#45;&gt;Inventory</title>
<path fill="none" stroke="#826f8c" d="M165.26,-172.943C175.178,-161.31 185.969,-148.654 196.549,-136.244"/>
<ellipse fill="none" stroke="#826f8c" cx="162.449" cy="-176.24" rx="4.00002" ry="4.00002"/>
<polygon fill="#826f8c" stroke="#826f8c" points="196.611,-136.17 206.524,-131.48 199.855,-132.365 203.099,-128.56 203.099,-128.56 203.099,-128.56 199.855,-132.365 199.675,-125.641 196.611,-136.17 196.611,-136.17"/>
</g>
<!-- User -->
<g id="node4" class="node"><title>User</title>
<path fill="none" stroke="black" d="M278,-316.5C278,-316.5 501.725,-316.5 501.725,-316.5 507.725,-316.5 513.725,-322.5 513.725,-328.5 513.725,-328.5 513.725,-418.5 513.725,-418.5 513.725,-424.5 507.725,-430.5 501.725,-430.5 501.725,-430.5 278,-430.5 278,-430.5 272,-430.5 266,-424.5 266,-418.5 266,-418.5 266,-328.5 266,-328.5 266,-322.5 272,-316.5 278,-316.5"/>
<text text-anchor="middle" x="389.862" y="-415.3" font-family="Times,serif" font-size="14.00">User</text>
<polyline fill="none" stroke="black" points="266,-408.5 513.725,-408.5 "/>
<text text-anchor="start" x="274" y="-393.3" font-family="Times,serif" font-size="14.00">id :integer</text>
<text text-anchor="start" x="274" y="-379.3" font-family="Times,serif" font-size="14.00">name :character varying</text>
<text text-anchor="start" x="274" y="-365.3" font-family="Times,serif" font-size="14.00">email :character varying</text>
<text text-anchor="start" x="274" y="-351.3" font-family="Times,serif" font-size="14.00">created_at :timestamp without time zone</text>
<text text-anchor="start" x="274" y="-337.3" font-family="Times,serif" font-size="14.00">updated_at :timestamp without time zone</text>
<text text-anchor="start" x="274" y="-323.3" font-family="Times,serif" font-size="14.00">inventory_id :integer</text>
</g>
<!-- Work -->
<g id="node5" class="node"><title>Work</title>
<path fill="none" stroke="black" d="M278,-165.5C278,-165.5 501.725,-165.5 501.725,-165.5 507.725,-165.5 513.725,-171.5 513.725,-177.5 513.725,-177.5 513.725,-267.5 513.725,-267.5 513.725,-273.5 507.725,-279.5 501.725,-279.5 501.725,-279.5 278,-279.5 278,-279.5 272,-279.5 266,-273.5 266,-267.5 266,-267.5 266,-177.5 266,-177.5 266,-171.5 272,-165.5 278,-165.5"/>
<text text-anchor="middle" x="389.862" y="-264.3" font-family="Times,serif" font-size="14.00">Work</text>
<polyline fill="none" stroke="black" points="266,-257.5 513.725,-257.5 "/>
<text text-anchor="start" x="274" y="-242.3" font-family="Times,serif" font-size="14.00">id :integer</text>
<text text-anchor="start" x="274" y="-228.3" font-family="Times,serif" font-size="14.00">description :text</text>
<text text-anchor="start" x="274" y="-214.3" font-family="Times,serif" font-size="14.00">user_id :integer</text>
<text text-anchor="start" x="274" y="-200.3" font-family="Times,serif" font-size="14.00">created_at :timestamp without time zone</text>
<text text-anchor="start" x="274" y="-186.3" font-family="Times,serif" font-size="14.00">updated_at :timestamp without time zone</text>
<text text-anchor="start" x="274" y="-172.3" font-family="Times,serif" font-size="14.00">inventory_id :integer</text>
</g>
<!-- User&#45;&gt;Work -->
<g id="edge2" class="edge"><title>User&#45;&gt;Work</title>
<path fill="none" stroke="#550eca" d="M389.862,-308.018C389.862,-302.024 389.862,-295.942 389.862,-289.931"/>
<ellipse fill="none" stroke="#550eca" cx="389.862" cy="-312.169" rx="4" ry="4"/>
<polygon fill="#550eca" stroke="#550eca" points="389.862,-289.91 394.362,-279.91 389.862,-284.91 389.862,-279.91 389.862,-279.91 389.862,-279.91 389.862,-284.91 385.362,-279.91 389.862,-289.91 389.862,-289.91"/>
</g>
<!-- Work&#45;&gt;Inventory -->
<g id="edge3" class="edge"><title>Work&#45;&gt;Inventory</title>
<path fill="none" stroke="#8de4c1" d="M336.579,-159.002C329.781,-151.028 322.79,-142.829 315.908,-134.757"/>
<ellipse fill="none" stroke="#8de4c1" cx="339.251" cy="-162.137" rx="4.00002" ry="4.00002"/>
<ellipse fill="#8de4c1" stroke="#8de4c1" cx="313.266" cy="-131.658" rx="4.00002" ry="4.00002"/>
</g>
</g>
</svg>
