<?xml version="1.0" encoding="UTF-8" standalone="no"?>
<!DOCTYPE svg PUBLIC "-//W3C//DTD SVG 1.1//EN"
 "http://www.w3.org/Graphics/SVG/1.1/DTD/svg11.dtd">
<!-- Generated by graphviz version 2.38.0 (20140413.2041)
 -->
<!-- Title: models_diagram Pages: 1 -->
<svg width="397pt" height="153pt"
 viewBox="0.00 0.00 397.23 153.00" xmlns="http://www.w3.org/2000/svg" xmlns:xlink="http://www.w3.org/1999/xlink">
<g id="graph0" class="graph" transform="scale(1 1) rotate(0) translate(4 149)">
<title>models_diagram</title>
<polygon fill="none" stroke="none" points="-4,4 -4,-149 393.226,-149 393.226,4 -4,4"/>
<!-- _diagram_info -->
<g id="node1" class="node"><title>_diagram_info</title>
<text text-anchor="start" x="8" y="-130.6" font-family="Times,serif" font-size="13.00">Models diagram</text>
<text text-anchor="start" x="8" y="-117.6" font-family="Times,serif" font-size="13.00">Date: Jul 18 2016 &#45; 20:44</text>
<text text-anchor="start" x="8" y="-104.6" font-family="Times,serif" font-size="13.00">Migration version: 20160719002045</text>
<text text-anchor="start" x="8" y="-91.6" font-family="Times,serif" font-size="13.00">Generated by RailRoady 1.5.1</text>
<text text-anchor="start" x="8" y="-78.6" font-family="Times,serif" font-size="13.00">http://railroady.prestonlee.com</text>
</g>
<!-- Category -->
<g id="node2" class="node"><title>Category</title>
<ellipse fill="none" stroke="black" cx="267.688" cy="-108.5" rx="42.5456" ry="18"/>
<text text-anchor="middle" x="267.688" y="-104.3" font-family="Times,serif" font-size="14.00">Category</text>
</g>
<!-- Inventory -->
<g id="node3" class="node"><title>Inventory</title>
<ellipse fill="none" stroke="black" cx="267.688" cy="-18" rx="44.475" ry="18"/>
<text text-anchor="middle" x="267.688" y="-13.8" font-family="Times,serif" font-size="14.00">Inventory</text>
</g>
<!-- Category&#45;&gt;Inventory -->
<g id="edge1" class="edge"><title>Category&#45;&gt;Inventory</title>
<path fill="none" stroke="#41e4c1" d="M267.688,-82.189C267.688,-70.9711 267.688,-57.7517 267.688,-46.3113"/>
<ellipse fill="none" stroke="#41e4c1" cx="267.688" cy="-86.4363" rx="4" ry="4"/>
<polygon fill="#41e4c1" stroke="#41e4c1" points="267.688,-46.0113 272.188,-36.0113 267.688,-41.0113 267.688,-36.0113 267.688,-36.0113 267.688,-36.0113 267.688,-41.0113 263.188,-36.0113 267.688,-46.0113 267.688,-46.0113"/>
</g>
<!-- User -->
<g id="node4" class="node"><title>User</title>
<ellipse fill="none" stroke="black" cx="357.688" cy="-108.5" rx="27" ry="18"/>
<text text-anchor="middle" x="357.688" y="-104.3" font-family="Times,serif" font-size="14.00">User</text>
</g>
<!-- User&#45;&gt;Inventory -->
<g id="edge3" class="edge"><title>User&#45;&gt;Inventory</title>
<path fill="none" stroke="#b2bdab" d="M337.152,-87.3066C323.034,-73.4238 304.3,-55.0025 289.846,-40.7887"/>
<ellipse fill="none" stroke="#b2bdab" cx="340.376" cy="-90.4764" rx="4.00002" ry="4.00002"/>
<ellipse fill="#b2bdab" stroke="#b2bdab" cx="286.791" cy="-37.7848" rx="4.00002" ry="4.00002"/>
</g>
<!-- Work -->
<g id="node5" class="node"><title>Work</title>
<ellipse fill="none" stroke="black" cx="359.688" cy="-18" rx="29.5766" ry="18"/>
<text text-anchor="middle" x="359.688" y="-13.8" font-family="Times,serif" font-size="14.00">Work</text>
</g>
<!-- User&#45;&gt;Work -->
<g id="edge2" class="edge"><title>User&#45;&gt;Work</title>
<path fill="none" stroke="#787447" d="M358.26,-82.189C358.513,-70.9711 358.812,-57.7517 359.071,-46.3113"/>
<ellipse fill="none" stroke="#787447" cx="358.164" cy="-86.4373" rx="4" ry="4"/>
<polygon fill="#787447" stroke="#787447" points="359.077,-46.0088 363.802,-36.113 359.19,-41.01 359.303,-36.0113 359.303,-36.0113 359.303,-36.0113 359.19,-41.01 354.804,-35.9096 359.077,-46.0088 359.077,-46.0088"/>
</g>
</g>
</svg>
