<?xml version="1.0" encoding="UTF-8" standalone="no"?>
<!DOCTYPE svg PUBLIC "-//W3C//DTD SVG 1.1//EN"
 "http://www.w3.org/Graphics/SVG/1.1/DTD/svg11.dtd">
<!-- Generated by graphviz version 2.38.0 (20140413.2041)
 -->
<!-- Title: models_diagram Pages: 1 -->
<svg width="748pt" height="274pt"
 viewBox="0.00 0.00 747.55 274.00" xmlns="http://www.w3.org/2000/svg" xmlns:xlink="http://www.w3.org/1999/xlink">
<g id="graph0" class="graph" transform="scale(1 1) rotate(0) translate(4 270)">
<title>models_diagram</title>
<polygon fill="none" stroke="none" points="-4,4 -4,-270 743.55,-270 743.55,4 -4,4"/>
<!-- _diagram_info -->
<g id="node1" class="node"><title>_diagram_info</title>
<text text-anchor="start" x="8" y="-237.6" font-family="Times,serif" font-size="13.00">Models diagram</text>
<text text-anchor="start" x="8" y="-224.6" font-family="Times,serif" font-size="13.00">Date: Jul 18 2016 &#45; 20:43</text>
<text text-anchor="start" x="8" y="-211.6" font-family="Times,serif" font-size="13.00">Migration version: 20160719002045</text>
<text text-anchor="start" x="8" y="-198.6" font-family="Times,serif" font-size="13.00">Generated by RailRoady 1.5.1</text>
<text text-anchor="start" x="8" y="-185.6" font-family="Times,serif" font-size="13.00">http://railroady.prestonlee.com</text>
</g>
<!-- Category -->
<g id="node2" class="node"><title>Category</title>
<path fill="none" stroke="black" d="M237.825,-172.5C237.825,-172.5 461.55,-172.5 461.55,-172.5 467.55,-172.5 473.55,-178.5 473.55,-184.5 473.55,-184.5 473.55,-246.5 473.55,-246.5 473.55,-252.5 467.55,-258.5 461.55,-258.5 461.55,-258.5 237.825,-258.5 237.825,-258.5 231.825,-258.5 225.825,-252.5 225.825,-246.5 225.825,-246.5 225.825,-184.5 225.825,-184.5 225.825,-178.5 231.825,-172.5 237.825,-172.5"/>
<text text-anchor="middle" x="349.688" y="-243.3" font-family="Times,serif" font-size="14.00">Category</text>
<polyline fill="none" stroke="black" points="225.825,-236.5 473.55,-236.5 "/>
<text text-anchor="start" x="233.825" y="-221.3" font-family="Times,serif" font-size="14.00">id :integer</text>
<text text-anchor="start" x="233.825" y="-207.3" font-family="Times,serif" font-size="14.00">name :character varying</text>
<text text-anchor="start" x="233.825" y="-193.3" font-family="Times,serif" font-size="14.00">created_at :timestamp without time zone</text>
<text text-anchor="start" x="233.825" y="-179.3" font-family="Times,serif" font-size="14.00">updated_at :timestamp without time zone</text>
</g>
<!-- Inventory -->
<g id="node3" class="node"><title>Inventory</title>
<path fill="none" stroke="black" d="M237.825,-0.5C237.825,-0.5 461.55,-0.5 461.55,-0.5 467.55,-0.5 473.55,-6.5 473.55,-12.5 473.55,-12.5 473.55,-116.5 473.55,-116.5 473.55,-122.5 467.55,-128.5 461.55,-128.5 461.55,-128.5 237.825,-128.5 237.825,-128.5 231.825,-128.5 225.825,-122.5 225.825,-116.5 225.825,-116.5 225.825,-12.5 225.825,-12.5 225.825,-6.5 231.825,-0.5 237.825,-0.5"/>
<text text-anchor="middle" x="349.688" y="-113.3" font-family="Times,serif" font-size="14.00">Inventory</text>
<polyline fill="none" stroke="black" points="225.825,-106.5 473.55,-106.5 "/>
<text text-anchor="start" x="233.825" y="-91.3" font-family="Times,serif" font-size="14.00">description :text</text>
<text text-anchor="start" x="233.825" y="-77.3" font-family="Times,serif" font-size="14.00">serial :integer</text>
<text text-anchor="start" x="233.825" y="-63.3" font-family="Times,serif" font-size="14.00">wheel :integer</text>
<text text-anchor="start" x="233.825" y="-49.3" font-family="Times,serif" font-size="14.00">id :integer</text>
<text text-anchor="start" x="233.825" y="-35.3" font-family="Times,serif" font-size="14.00">category_id :integer</text>
<text text-anchor="start" x="233.825" y="-21.3" font-family="Times,serif" font-size="14.00">created_at :timestamp without time zone</text>
<text text-anchor="start" x="233.825" y="-7.3" font-family="Times,serif" font-size="14.00">updated_at :timestamp without time zone</text>
</g>
<!-- Category&#45;&gt;Inventory -->
<g id="edge1" class="edge"><title>Category&#45;&gt;Inventory</title>
<path fill="none" stroke="#4be7dd" d="M349.688,-164.104C349.688,-155.948 349.688,-147.36 349.688,-138.793"/>
<ellipse fill="none" stroke="#4be7dd" cx="349.688" cy="-168.201" rx="4" ry="4"/>
<polygon fill="#4be7dd" stroke="#4be7dd" points="349.688,-138.774 354.188,-128.774 349.688,-133.774 349.688,-128.774 349.688,-128.774 349.688,-128.774 349.688,-133.774 345.188,-128.774 349.688,-138.774 349.688,-138.774"/>
</g>
<!-- User -->
<g id="node4" class="node"><title>User</title>
<path fill="none" stroke="black" d="M503.825,-165.5C503.825,-165.5 727.55,-165.5 727.55,-165.5 733.55,-165.5 739.55,-171.5 739.55,-177.5 739.55,-177.5 739.55,-253.5 739.55,-253.5 739.55,-259.5 733.55,-265.5 727.55,-265.5 727.55,-265.5 503.825,-265.5 503.825,-265.5 497.825,-265.5 491.825,-259.5 491.825,-253.5 491.825,-253.5 491.825,-177.5 491.825,-177.5 491.825,-171.5 497.825,-165.5 503.825,-165.5"/>
<text text-anchor="middle" x="615.688" y="-250.3" font-family="Times,serif" font-size="14.00">User</text>
<polyline fill="none" stroke="black" points="491.825,-243.5 739.55,-243.5 "/>
<text text-anchor="start" x="499.825" y="-228.3" font-family="Times,serif" font-size="14.00">id :integer</text>
<text text-anchor="start" x="499.825" y="-214.3" font-family="Times,serif" font-size="14.00">name :character varying</text>
<text text-anchor="start" x="499.825" y="-200.3" font-family="Times,serif" font-size="14.00">email :character varying</text>
<text text-anchor="start" x="499.825" y="-186.3" font-family="Times,serif" font-size="14.00">created_at :timestamp without time zone</text>
<text text-anchor="start" x="499.825" y="-172.3" font-family="Times,serif" font-size="14.00">updated_at :timestamp without time zone</text>
</g>
<!-- User&#45;&gt;Inventory -->
<g id="edge3" class="edge"><title>User&#45;&gt;Inventory</title>
<path fill="none" stroke="#05d563" d="M520.445,-161.15C504.034,-151.957 486.787,-142.296 469.821,-132.793"/>
<ellipse fill="none" stroke="#05d563" cx="524.362" cy="-163.344" rx="4.00002" ry="4.00002"/>
<ellipse fill="#05d563" stroke="#05d563" cx="466.061" cy="-130.686" rx="4.00002" ry="4.00002"/>
</g>
<!-- Work -->
<g id="node5" class="node"><title>Work</title>
<path fill="none" stroke="black" d="M503.825,-14.5C503.825,-14.5 727.55,-14.5 727.55,-14.5 733.55,-14.5 739.55,-20.5 739.55,-26.5 739.55,-26.5 739.55,-102.5 739.55,-102.5 739.55,-108.5 733.55,-114.5 727.55,-114.5 727.55,-114.5 503.825,-114.5 503.825,-114.5 497.825,-114.5 491.825,-108.5 491.825,-102.5 491.825,-102.5 491.825,-26.5 491.825,-26.5 491.825,-20.5 497.825,-14.5 503.825,-14.5"/>
<text text-anchor="middle" x="615.688" y="-99.3" font-family="Times,serif" font-size="14.00">Work</text>
<polyline fill="none" stroke="black" points="491.825,-92.5 739.55,-92.5 "/>
<text text-anchor="start" x="499.825" y="-77.3" font-family="Times,serif" font-size="14.00">id :integer</text>
<text text-anchor="start" x="499.825" y="-63.3" font-family="Times,serif" font-size="14.00">description :text</text>
<text text-anchor="start" x="499.825" y="-49.3" font-family="Times,serif" font-size="14.00">user_id :integer</text>
<text text-anchor="start" x="499.825" y="-35.3" font-family="Times,serif" font-size="14.00">created_at :timestamp without time zone</text>
<text text-anchor="start" x="499.825" y="-21.3" font-family="Times,serif" font-size="14.00">updated_at :timestamp without time zone</text>
</g>
<!-- User&#45;&gt;Work -->
<g id="edge2" class="edge"><title>User&#45;&gt;Work</title>
<path fill="none" stroke="#6af95f" d="M615.688,-157.157C615.688,-146.529 615.688,-135.409 615.688,-124.727"/>
<ellipse fill="none" stroke="#6af95f" cx="615.688" cy="-161.299" rx="4" ry="4"/>
<polygon fill="#6af95f" stroke="#6af95f" points="615.688,-124.649 620.188,-114.649 615.688,-119.649 615.688,-114.649 615.688,-114.649 615.688,-114.649 615.688,-119.649 611.188,-114.649 615.688,-124.649 615.688,-124.649"/>
</g>
</g>
</svg>
