<?xml version="1.0" encoding="UTF-8" standalone="no"?>
<!DOCTYPE svg PUBLIC "-//W3C//DTD SVG 1.1//EN"
 "http://www.w3.org/Graphics/SVG/1.1/DTD/svg11.dtd">
<!-- Generated by graphviz version 2.38.0 (20140413.2041)
 -->
<!-- Title: models_diagram Pages: 1 -->
<svg width="290pt" height="225pt"
 viewBox="0.00 0.00 290.23 225.00" xmlns="http://www.w3.org/2000/svg" xmlns:xlink="http://www.w3.org/1999/xlink">
<g id="graph0" class="graph" transform="scale(1 1) rotate(0) translate(4 221)">
<title>models_diagram</title>
<polygon fill="none" stroke="none" points="-4,4 -4,-221 286.226,-221 286.226,4 -4,4"/>
<!-- _diagram_info -->
<g id="node1" class="node"><title>_diagram_info</title>
<text text-anchor="start" x="8" y="-202.6" font-family="Times,serif" font-size="13.00">Models diagram</text>
<text text-anchor="start" x="8" y="-189.6" font-family="Times,serif" font-size="13.00">Date: Jul 18 2016 &#45; 21:02</text>
<text text-anchor="start" x="8" y="-176.6" font-family="Times,serif" font-size="13.00">Migration version: 20160719010001</text>
<text text-anchor="start" x="8" y="-163.6" font-family="Times,serif" font-size="13.00">Generated by RailRoady 1.5.1</text>
<text text-anchor="start" x="8" y="-150.6" font-family="Times,serif" font-size="13.00">http://railroady.prestonlee.com</text>
</g>
<!-- Category -->
<g id="node2" class="node"><title>Category</title>
<ellipse fill="none" stroke="black" cx="162.688" cy="-90" rx="42.5456" ry="18"/>
<text text-anchor="middle" x="162.688" y="-85.8" font-family="Times,serif" font-size="14.00">Category</text>
</g>
<!-- Inventory -->
<g id="node3" class="node"><title>Inventory</title>
<ellipse fill="none" stroke="black" cx="207.688" cy="-18" rx="44.475" ry="18"/>
<text text-anchor="middle" x="207.688" y="-13.8" font-family="Times,serif" font-size="14.00">Inventory</text>
</g>
<!-- Category&#45;&gt;Inventory -->
<g id="edge1" class="edge"><title>Category&#45;&gt;Inventory</title>
<path fill="none" stroke="#1a0124" d="M177.712,-65.6295C182.003,-58.9548 186.703,-51.6434 191.082,-44.8306"/>
<ellipse fill="none" stroke="#1a0124" cx="175.515" cy="-69.0463" rx="4.00002" ry="4.00002"/>
<polygon fill="#1a0124" stroke="#1a0124" points="191.38,-44.368 200.573,-38.3896 194.084,-40.1621 196.787,-35.9562 196.787,-35.9562 196.787,-35.9562 194.084,-40.1621 193.002,-33.5228 191.38,-44.368 191.38,-44.368"/>
</g>
<!-- User -->
<g id="node4" class="node"><title>User</title>
<ellipse fill="none" stroke="black" cx="252.688" cy="-180.5" rx="27" ry="18"/>
<text text-anchor="middle" x="252.688" y="-176.3" font-family="Times,serif" font-size="14.00">User</text>
</g>
<!-- Work -->
<g id="node5" class="node"><title>Work</title>
<ellipse fill="none" stroke="black" cx="252.688" cy="-90" rx="29.5766" ry="18"/>
<text text-anchor="middle" x="252.688" y="-85.8" font-family="Times,serif" font-size="14.00">Work</text>
</g>
<!-- User&#45;&gt;Work -->
<g id="edge2" class="edge"><title>User&#45;&gt;Work</title>
<path fill="none" stroke="#662a1f" d="M252.688,-154.189C252.688,-142.971 252.688,-129.752 252.688,-118.311"/>
<ellipse fill="none" stroke="#662a1f" cx="252.688" cy="-158.436" rx="4" ry="4"/>
<polygon fill="#662a1f" stroke="#662a1f" points="252.688,-118.011 257.188,-108.011 252.688,-113.011 252.688,-108.011 252.688,-108.011 252.688,-108.011 252.688,-113.011 248.188,-108.011 252.688,-118.011 252.688,-118.011"/>
</g>
<!-- Work&#45;&gt;Inventory -->
<g id="edge3" class="edge"><title>Work&#45;&gt;Inventory</title>
<path fill="none" stroke="#d524ee" d="M237.821,-65.8736C233.055,-58.4603 227.771,-50.2407 222.976,-42.7813"/>
<ellipse fill="none" stroke="#d524ee" cx="240.088" cy="-69.3999" rx="4.00002" ry="4.00002"/>
<ellipse fill="#d524ee" stroke="#d524ee" cx="220.544" cy="-38.9981" rx="4.00002" ry="4.00002"/>
</g>
</g>
</svg>
